<svg xmlns="http://www.w3.org/2000/svg" xmlns:xlink="http://www.w3.org/1999/xlink" width="530.198" height="90.087" viewBox="0 0 530.198 90.087">
  <defs>
    <filter id="Rectángulo_18759" x="0" y="0" width="530.198" height="90.087" filterUnits="userSpaceOnUse">
      <feOffset dy="3" input="SourceAlpha"/>
      <feGaussianBlur stdDeviation="3" result="blur"/>
      <feFlood flood-opacity="0.161"/>
      <feComposite operator="in" in2="blur"/>
      <feComposite in="SourceGraphic"/>
    </filter>
    <clipPath id="clip-path">
      <rect id="Rectángulo_17469" data-name="Rectángulo 17469" width="24.665" height="22.135" fill="none" stroke="#2ec5a9" stroke-width="1"/>
    </clipPath>
  </defs>
  <g id="Correo_Login" data-name="Correo Login" transform="translate(9 6)">
    <g transform="matrix(1, 0, 0, 1, -9, -6)" filter="url(#Rectángulo_18759)">
      <rect id="Rectángulo_18759-2" data-name="Rectángulo 18759" width="512.198" height="72.087" rx="10" transform="translate(9 6)" fill="#fff"/>
    </g>
    <text id="Correo" transform="translate(78.727 46.61)" fill="#042d6f" font-size="19" font-family="Poppins-Regular, Poppins"><tspan x="0" y="0">Correo</tspan></text>
    <g id="Grupo_70608" data-name="Grupo 70608" transform="translate(22.665 28.263)">
      <g id="Grupo_65246" data-name="Grupo 65246" transform="translate(0 0)" clip-path="url(#clip-path)">
        <path id="Trazado_55174" data-name="Trazado 55174" d="M18.162,6.311,13.088,10.4a2.644,2.644,0,0,1-3.266,0L4.7,6.311" transform="translate(0.892 1.196)" fill="none" stroke="#2ec5a9" stroke-linecap="round" stroke-linejoin="round" stroke-width="1.5"/>
        <path id="Trazado_55175" data-name="Trazado 55175" d="M6.564.75H17.779a5.9,5.9,0,0,1,4.263,1.891,5.966,5.966,0,0,1,1.577,4.4v7.765a5.966,5.966,0,0,1-1.577,4.4A5.9,5.9,0,0,1,17.784,21.1H6.564C3.091,21.11.75,18.285.75,14.813V7.047C.75,3.575,3.091.75,6.564.75Z" transform="translate(0.142 0.142)" fill="none" stroke="#2ec5a9" stroke-linecap="round" stroke-linejoin="round" stroke-width="1.5"/>
      </g>
    </g>
  </g>
</svg>
