<svg xmlns="http://www.w3.org/2000/svg" xmlns:xlink="http://www.w3.org/1999/xlink" width="158" height="71" viewBox="0 0 158 71">
  <defs>
    <filter id="Rect치ngulo_19040" x="0" y="0" width="158" height="71" filterUnits="userSpaceOnUse">
      <feOffset dy="3" input="SourceAlpha"/>
      <feGaussianBlur stdDeviation="3" result="blur"/>
      <feFlood flood-opacity="0.161"/>
      <feComposite operator="in" in2="blur"/>
      <feComposite in="SourceGraphic"/>
    </filter>
  </defs>
  <g id="Idioma_" data-name="Idioma+" transform="translate(9 6)">
    <g transform="matrix(1, 0, 0, 1, -9, -6)" filter="url(#Rect치ngulo_19040)">
      <rect id="Rect치ngulo_19040-2" data-name="Rect치ngulo 19040" width="140" height="53" rx="7" transform="translate(9 6)" fill="#fff"/>
    </g>
    <text id="ESP" transform="translate(78 36)" fill="#03255a" font-size="21" font-family="GothamPro-Medium, Gotham Pro" font-weight="500"><tspan x="-20" y="0">ESP</tspan></text>
    <g id="global" transform="translate(13.67 13.624)">
      <g id="Grupo_70704" data-name="Grupo 70704" transform="translate(0.016 -0.002)">
        <path id="Trazado_55765" data-name="Trazado 55765" d="M26.622,6.2a.245.245,0,0,0,0-.028c-.037-.052-.082-.1-.119-.149q-.411-.559-.869-1.077c-.084-.094-.168-.187-.253-.28q-.472-.506-.991-.965c-.064-.057-.124-.115-.187-.171a14.679,14.679,0,0,0-2.78-1.877c-.04-.021-.082-.039-.123-.06A14.565,14.565,0,0,0,19.935.984c-.1-.038-.2-.073-.3-.1Q19.016.656,18.378.488C18.253.455,18.127.42,18,.391c-.419-.1-.838-.172-1.266-.233C16.6.14,16.475.115,16.344.1a13.769,13.769,0,0,0-3.322,0c-.131.016-.259.041-.389.06-.428.061-.851.135-1.266.233-.128.029-.253.064-.379.1q-.642.168-1.257.391c-.1.036-.2.071-.3.1A14.557,14.557,0,0,0,8.07,1.59c-.041.021-.083.039-.123.06A14.683,14.683,0,0,0,5.159,3.527c-.064.055-.124.114-.187.171a13.622,13.622,0,0,0-.991.965c-.086.092-.17.185-.253.28q-.46.516-.869,1.077c-.038.051-.083.1-.119.149a.238.238,0,0,0-.013.028,14.567,14.567,0,0,0,0,16.923.228.228,0,0,0,.013.028c.037.052.082.1.119.149q.41.559.869,1.077c.084.094.168.187.253.28q.473.506.991.965c.064.057.124.115.187.171a14.679,14.679,0,0,0,2.78,1.877c.04.021.082.039.123.06a14.565,14.565,0,0,0,1.362.606c.1.038.2.073.3.1q.619.223,1.257.391c.126.034.251.068.379.1.419.1.838.172,1.266.233.13.019.258.044.389.06a13.769,13.769,0,0,0,3.322,0c.131-.016.259-.041.389-.06.428-.061.851-.135,1.266-.233.128-.029.253-.064.379-.1q.643-.168,1.257-.391c.1-.036.2-.071.3-.1a14.556,14.556,0,0,0,1.362-.606c.041-.021.083-.039.123-.06a14.682,14.682,0,0,0,2.78-1.877c.064-.056.124-.114.187-.171a13.335,13.335,0,0,0,.991-.965c.086-.092.17-.185.253-.28q.46-.517.869-1.077c.038-.051.083-.1.119-.149a.237.237,0,0,0,.013-.028A14.567,14.567,0,0,0,26.622,6.2Zm-1.2,1.982a12.462,12.462,0,0,1,1.767,5.433H20.92a19.544,19.544,0,0,0-.586-3.7A18.82,18.82,0,0,0,25.427,8.177Zm-8.083-5.8c.059.014.115.032.174.046a11.271,11.271,0,0,1,1.11.314c.056.019.11.041.164.061q.54.189,1.063.419c.061.028.12.06.181.088q.5.238.976.514l.209.127q.452.277.88.592c.073.053.147.1.219.163a9.556,9.556,0,0,1,.8.673c.067.061.136.12.2.183.268.254.524.524.771.8.031.037.065.07.1.1A17.568,17.568,0,0,1,19.725,7.9a26.631,26.631,0,0,0-2.819-5.595C17.051,2.332,17.2,2.347,17.344,2.378ZM10.528,13.61a17.475,17.475,0,0,1,.576-3.351,30.011,30.011,0,0,0,3.576.209,30.08,30.08,0,0,0,3.579-.215,17.443,17.443,0,0,1,.573,3.357Zm8.3,2.095a17.475,17.475,0,0,1-.576,3.351,30.653,30.653,0,0,0-7.154,0,17.448,17.448,0,0,1-.573-3.351ZM14.679,2.772A25.3,25.3,0,0,1,17.6,8.218a27.72,27.72,0,0,1-2.919.155,27.929,27.929,0,0,1-2.916-.156A25.5,25.5,0,0,1,14.679,2.772ZM5.264,6.36c.246-.279.5-.548.771-.8.066-.063.135-.123.2-.183q.388-.353.8-.673c.072-.056.146-.1.219-.163q.427-.314.88-.592l.209-.127q.477-.279.976-.514c.061-.028.12-.06.181-.088q.522-.236,1.063-.419c.054-.02.1-.042.164-.061.363-.122.733-.222,1.11-.314.059-.014.115-.032.175-.045.143-.031.292-.046.438-.072A26.633,26.633,0,0,0,9.634,7.9,17.567,17.567,0,0,1,5.167,6.467C5.2,6.43,5.232,6.4,5.264,6.36ZM3.931,8.177A18.817,18.817,0,0,0,9.024,9.914a19.543,19.543,0,0,0-.585,3.7H2.165A12.464,12.464,0,0,1,3.931,8.177Zm0,12.96A12.462,12.462,0,0,1,2.165,15.7H8.438a19.543,19.543,0,0,0,.586,3.7A18.816,18.816,0,0,0,3.931,21.137Zm8.083,5.8c-.059-.014-.115-.032-.174-.046a11.272,11.272,0,0,1-1.11-.314c-.056-.019-.11-.041-.164-.061q-.54-.189-1.063-.419c-.061-.028-.12-.06-.181-.088q-.5-.238-.976-.514l-.209-.127q-.452-.277-.88-.592c-.073-.053-.147-.1-.219-.163a9.556,9.556,0,0,1-.8-.673c-.067-.061-.136-.12-.2-.183-.268-.254-.524-.524-.771-.8-.031-.037-.065-.07-.1-.1a17.568,17.568,0,0,1,4.467-1.435,26.631,26.631,0,0,0,2.819,5.595C12.307,26.982,12.158,26.967,12.015,26.936Zm2.664-.394A25.3,25.3,0,0,1,11.76,21.1a27.266,27.266,0,0,1,5.836,0h0A25.49,25.49,0,0,1,14.679,26.542Zm9.416-3.588c-.246.279-.5.548-.771.8-.066.063-.135.123-.2.183q-.388.354-.8.673c-.072.055-.146.11-.219.163q-.427.314-.88.592l-.209.127q-.476.278-.976.514c-.061.028-.12.06-.181.088q-.522.236-1.063.419c-.054.02-.1.042-.164.061-.363.122-.733.222-1.11.314-.059.014-.115.032-.175.045-.143.031-.292.046-.438.072a26.628,26.628,0,0,0,2.819-5.595,17.567,17.567,0,0,1,4.467,1.435C24.16,22.884,24.126,22.917,24.095,22.954Zm1.332-1.817A18.817,18.817,0,0,0,20.335,19.4a19.543,19.543,0,0,0,.585-3.7h6.274A12.464,12.464,0,0,1,25.427,21.137Z" transform="translate(-0.016 0.002)" fill="#042d6f"/>
      </g>
    </g>
    <path id="Trazado_55766" data-name="Trazado 55766" d="M732.859,4615l3.814,4.135,4.068-4.135" transform="translate(-615.8 -4587.067)" fill="none" stroke="#2fc5a9" stroke-linecap="round" stroke-width="3"/>
  </g>
</svg>
